<?xml version="1.0" standalone="no"?>
<!DOCTYPE svg PUBLIC "-//W3C//DTD SVG 20010904//EN"
 "http://www.w3.org/TR/2001/REC-SVG-20010904/DTD/svg10.dtd">
<svg version="1.0" xmlns="http://www.w3.org/2000/svg"
 width="428.000000pt" height="428.000000pt" viewBox="0 0 428.000000 428.000000"
 preserveAspectRatio="xMidYMid meet">
<metadata>
Created by potrace 1.11, written by Peter Selinger 2001-2013
</metadata>
<g transform="translate(0.000000,428.000000) scale(0.100000,-0.100000)"
fill="#000000" stroke="none">
<path d="M0 2140 l0 -2140 2140 0 2140 0 0 2140 0 2140 -2140 0 -2140 0 0
-2140z m520 208 c0 -448 3 -474 65 -560 25 -33 52 -55 99 -78 62 -31 70 -32
159 -28 79 3 100 8 139 31 67 39 115 100 138 175 19 59 20 94 20 463 l0 399
80 0 80 0 0 -600 0 -600 -80 0 -80 0 0 55 c0 30 -4 55 -10 55 -5 0 -29 -15
-53 -33 -149 -114 -357 -123 -513 -24 -51 32 -127 114 -152 163 -53 104 -55
122 -60 552 -2 221 -1 409 2 417 4 12 24 15 86 15 l80 0 0 -402z m1090 182 c0
-139 4 -220 10 -220 5 0 39 20 74 44 104 71 207 96 316 76 195 -35 346 -185
380 -378 42 -232 -133 -468 -378 -512 -114 -21 -246 14 -342 90 -21 16 -43 30
-49 30 -7 0 -11 -21 -11 -55 l0 -55 -75 0 -75 0 0 600 0 600 75 0 75 0 0 -220z
m1455 -117 c179 -56 305 -233 305 -428 l0 -45 -360 0 -360 0 0 -28 c0 -44 47
-128 96 -171 58 -51 119 -71 213 -71 63 0 86 5 136 29 33 15 71 40 84 55 14
14 28 26 32 26 12 0 99 -62 99 -71 0 -18 -108 -104 -163 -129 -255 -119 -555
12 -637 279 -104 336 218 658 555 554z m853 -60 l3 -73 -60 0 c-96 0 -150 -31
-194 -115 -20 -38 -22 -57 -25 -327 l-4 -288 -74 0 -74 0 0 435 0 435 75 0 75
0 0 -50 c0 -60 13 -64 56 -19 47 50 125 80 194 76 24 -2 25 -5 28 -74z"/>
<path d="M1835 2277 c-203 -67 -279 -316 -147 -484 78 -98 220 -139 343 -98
72 24 159 110 182 179 53 154 -12 314 -156 388 -52 26 -164 34 -222 15z"/>
<path d="M2836 2275 c-72 -25 -149 -108 -171 -182 l-6 -23 271 0 271 0 -7 23
c-47 152 -209 235 -358 182z"/>
</g>
</svg>
